<svg width="16" height="17" viewBox="0 0 16 17" fill="none" xmlns="http://www.w3.org/2000/svg">
<path fill-rule="evenodd" clip-rule="evenodd" d="M10.1228 11.2029C10.1711 10.7452 10.5813 10.4134 11.039 10.4617C12.237 10.5882 13.3976 10.9534 14.4522 11.5358C14.4719 11.5467 14.4911 11.5584 14.5099 11.5708C14.9041 11.8322 15.281 12.1946 15.432 12.6871C15.6007 13.2373 15.4315 13.7534 15.1091 14.147C15.0811 14.1813 15.0504 14.2132 15.0173 14.2426C14.2155 14.9534 13.2245 15.4155 12.1651 15.5728C10.7988 15.8806 9.40052 16.0233 8.00019 15.9976C6.59986 16.0229 5.20157 15.88 3.83536 15.5719C2.77603 15.4145 1.78504 14.9525 0.98333 14.2416C0.950219 14.2123 0.9195 14.1803 0.891463 14.1461C0.569076 13.7524 0.39988 13.2363 0.568585 12.6862C0.719607 12.1937 1.09652 11.8313 1.49068 11.5698C1.50952 11.5574 1.52885 11.5456 1.54864 11.5347C2.6033 10.9527 3.76383 10.5879 4.96177 10.4617C5.41948 10.4135 5.82961 10.7454 5.87783 11.2031C5.92605 11.6608 5.59409 12.071 5.13639 12.1192C4.17175 12.2208 3.23687 12.5122 2.38553 12.9766C2.31172 13.0274 2.25907 13.0717 2.22256 13.1076C2.76353 13.5451 3.41378 13.8287 4.10475 13.9269C4.12749 13.9301 4.15009 13.9343 4.17249 13.9394C5.4226 14.2238 6.70264 14.3553 7.98447 14.331C7.99508 14.3308 8.0057 14.3308 8.01631 14.331C9.29811 14.3556 10.5781 14.2244 11.8283 13.9403C11.8506 13.9352 11.8732 13.931 11.8958 13.9278C12.5868 13.8297 13.2371 13.546 13.778 13.1086C13.7415 13.0727 13.6888 13.0283 13.615 12.9775C12.7636 12.5128 11.8287 12.221 10.864 12.1192C10.4063 12.0708 10.0744 11.6606 10.1228 11.2029Z" fill="black"/>
<path d="M8.00016 1.8335C7.02805 1.83464 6.09609 2.22132 5.4087 2.9087C4.72132 3.59609 4.33464 4.52805 4.3335 5.50016C4.33233 6.29457 4.59182 7.06742 5.07216 7.70016C5.07216 7.70016 5.17216 7.83183 5.1885 7.85083L8.00016 11.1668L10.8132 7.84916C10.8278 7.8315 10.9282 7.70016 10.9282 7.70016L10.9285 7.69916C11.4086 7.0667 11.668 6.29421 11.6668 5.50016C11.6657 4.52805 11.279 3.59609 10.5916 2.9087C9.90423 2.22132 8.97227 1.83464 8.00016 1.8335ZM8.00016 6.8335C7.73645 6.8335 7.47867 6.7553 7.2594 6.60879C7.04013 6.46228 6.86924 6.25404 6.76832 6.01041C6.6674 5.76677 6.641 5.49868 6.69245 5.24004C6.74389 4.9814 6.87088 4.74382 7.05735 4.55735C7.24382 4.37088 7.4814 4.2439 7.74004 4.19245C7.99868 4.141 8.26677 4.16741 8.5104 4.26832C8.75404 4.36924 8.96228 4.54014 9.10878 4.7594C9.25529 4.97867 9.33349 5.23645 9.33349 5.50016C9.33305 5.85365 9.19243 6.19253 8.94248 6.44248C8.69253 6.69244 8.35365 6.83305 8.00016 6.8335Z" fill="black"/>
</svg>
