<svg width="31" height="30" viewBox="0 0 31 30" fill="none" xmlns="http://www.w3.org/2000/svg">
<path d="M12.8007 17.6122C14.6396 19.4776 16.8646 20.9179 19.3195 21.8318L22.6406 19.189C22.739 19.1212 22.8558 19.0849 22.9753 19.0849C23.0949 19.0849 23.2116 19.1212 23.3101 19.189L29.4765 23.162C29.7106 23.3027 29.9088 23.496 30.0554 23.7265C30.202 23.9569 30.293 24.2184 30.3212 24.4901C30.3494 24.7618 30.314 25.0363 30.2179 25.292C30.1217 25.5477 29.9675 25.7775 29.7672 25.9633L26.8778 28.8175C26.464 29.2263 25.9554 29.5264 25.3975 29.6909C24.8395 29.8553 24.2495 29.8791 23.6801 29.7601C18.0001 28.587 12.7647 25.8395 8.57228 21.8318C4.47289 17.7842 1.63614 12.6339 0.406137 7.00587C0.284628 6.44529 0.309989 5.86282 0.479761 5.31492C0.649533 4.76702 0.957959 4.27226 1.37515 3.8786L4.37028 0.989178C4.55563 0.798712 4.78166 0.652644 5.03146 0.561912C5.28125 0.471179 5.54834 0.438134 5.81271 0.465249C6.07709 0.492365 6.3319 0.578939 6.55808 0.718489C6.78426 0.858039 6.97593 1.04695 7.11876 1.27107L11.2238 7.35824C11.2947 7.45382 11.3329 7.56963 11.3329 7.68858C11.3329 7.80754 11.2947 7.92334 11.2238 8.01893L8.51942 11.2695C9.45811 13.6753 10.9206 15.8419 12.8007 17.6122Z" fill="#0066B2"/>
</svg>
