<svg width="72" height="72" viewBox="0 0 72 72" fill="none" xmlns="http://www.w3.org/2000/svg">
<path fill-rule="evenodd" clip-rule="evenodd" d="M36 16.05L28.864 9.27076C27.6705 8.13696 26.0518 7.5 24.364 7.5H24C20.6863 7.5 18 10.052 18 13.2C18 14.2382 18.2922 15.2116 18.8027 16.05H15C10.0294 16.05 6 19.878 6 24.6V28.875C6 31.206 7.17833 33.2756 9 34.5755V55.95C9 60.672 13.0294 64.5 18 64.5H54C58.9706 64.5 63 60.672 63 55.95V34.5755C64.8217 33.2756 66 31.206 66 28.875V24.6C66 19.878 61.9706 16.05 57 16.05H53.1973C53.7078 15.2116 54 14.2382 54 13.2C54 10.052 51.3137 7.5 48 7.5H47.636C45.9482 7.5 44.3295 8.13696 43.136 9.27076L36 16.05ZM40.2426 16.05H48C49.6569 16.05 51 14.774 51 13.2C51 11.626 49.6569 10.35 48 10.35H47.636C46.7439 10.35 45.8882 10.6867 45.2574 11.286L40.2426 16.05ZM15 18.9C11.6863 18.9 9 21.452 9 24.6V28.875C9 31.236 11.0147 33.15 13.5 33.15H34.5V18.9H15ZM37.5 18.9V33.15H58.5C60.9853 33.15 63 31.236 63 28.875V24.6C63 21.452 60.3137 18.9 57 18.9H37.5ZM31.7574 16.05H24C22.3431 16.05 21 14.774 21 13.2C21 11.626 22.3431 10.35 24 10.35H24.364C25.2561 10.35 26.1118 10.6867 26.7426 11.286L31.7574 16.05ZM12 36V55.95C12 59.098 14.6863 61.65 18 61.65H34.5V36H12ZM37.5 61.65V36H60V55.95C60 59.098 57.3137 61.65 54 61.65H37.5Z" fill="white"/>
</svg>
