<svg width="72" height="72" viewBox="0 0 72 72" fill="none" xmlns="http://www.w3.org/2000/svg">
<path d="M22.0788 22.0788L21.1242 21.1242L22.0788 22.0788ZM49.9212 22.0788L50.8758 21.1242L49.9212 22.0788ZM49.9212 49.9212L50.8758 50.8758L49.9212 49.9212ZM22.0788 49.9212L21.1242 50.8758L22.0788 49.9212ZM31.227 40.773L32.1816 39.8184L31.227 40.773ZM40.773 40.773L39.8184 39.8184L40.773 40.773ZM40.773 31.227L39.8184 32.1816L40.773 31.227ZM34.65 42.75V55.6875H37.35V42.75H34.65ZM34.65 16.3125V29.25H37.35V16.3125H34.65ZM29.25 34.65H16.3125V37.35H29.25V34.65ZM55.6875 34.65H42.75V37.35H55.6875V34.65ZM67.8375 36C67.8375 53.5834 53.5834 67.8375 36 67.8375V70.5375C55.0745 70.5375 70.5375 55.0745 70.5375 36H67.8375ZM36 67.8375C18.4166 67.8375 4.1625 53.5834 4.1625 36H1.4625C1.4625 55.0745 16.9255 70.5375 36 70.5375V67.8375ZM4.1625 36C4.1625 18.4166 18.4166 4.1625 36 4.1625V1.4625C16.9255 1.4625 1.4625 16.9255 1.4625 36H4.1625ZM36 4.1625C53.5834 4.1625 67.8375 18.4166 67.8375 36H70.5375C70.5375 16.9255 55.0745 1.4625 36 1.4625V4.1625ZM17.6625 36C17.6625 30.9359 19.7135 26.3533 23.0334 23.0334L21.1242 21.1242C17.3187 24.9298 14.9625 30.191 14.9625 36H17.6625ZM23.0334 23.0334C26.3533 19.7135 30.9359 17.6625 36 17.6625V14.9625C30.191 14.9625 24.9298 17.3187 21.1242 21.1242L23.0334 23.0334ZM36 17.6625C41.0641 17.6625 45.6467 19.7135 48.9666 23.0334L50.8758 21.1242C47.0702 17.3187 41.809 14.9625 36 14.9625V17.6625ZM48.9666 23.0334C52.2865 26.3533 54.3375 30.9359 54.3375 36H57.0375C57.0375 30.191 54.6813 24.9298 50.8758 21.1242L48.9666 23.0334ZM54.3375 36C54.3375 41.0641 52.2865 45.6467 48.9666 48.9666L50.8758 50.8758C54.6813 47.0702 57.0375 41.809 57.0375 36H54.3375ZM48.9666 48.9666C45.6467 52.2865 41.0641 54.3375 36 54.3375V57.0375C41.809 57.0375 47.0702 54.6813 50.8758 50.8758L48.9666 48.9666ZM36 54.3375C30.9359 54.3375 26.3533 52.2865 23.0334 48.9666L21.1242 50.8758C24.9298 54.6813 30.191 57.0375 36 57.0375V54.3375ZM23.0334 48.9666C19.7135 45.6467 17.6625 41.0641 17.6625 36H14.9625C14.9625 41.809 17.3187 47.0702 21.1242 50.8758L23.0334 48.9666ZM30.2724 39.8184L21.1242 48.9666L23.0334 50.8758L32.1816 41.7276L30.2724 39.8184ZM36 41.4C34.5085 41.4 33.1603 40.7971 32.1816 39.8184L30.2724 41.7276C31.7368 43.1919 33.7636 44.1 36 44.1V41.4ZM32.1816 39.8184C31.2029 38.8397 30.6 37.4915 30.6 36H27.9C27.9 38.2364 28.8081 40.2632 30.2724 41.7276L32.1816 39.8184ZM50.8758 48.9666L41.7276 39.8184L39.8184 41.7276L48.9666 50.8758L50.8758 48.9666ZM41.4 36C41.4 37.4915 40.7971 38.8397 39.8184 39.8184L41.7276 41.7276C43.1919 40.2632 44.1 38.2364 44.1 36H41.4ZM39.8184 39.8184C38.8397 40.7971 37.4915 41.4 36 41.4V44.1C38.2364 44.1 40.2632 43.1919 41.7276 41.7276L39.8184 39.8184ZM48.9666 21.1242L39.8184 30.2724L41.7276 32.1816L50.8758 23.0334L48.9666 21.1242ZM36 30.6C37.4915 30.6 38.8397 31.2029 39.8184 32.1816L41.7276 30.2724C40.2632 28.8081 38.2364 27.9 36 27.9V30.6ZM39.8184 32.1816C40.7971 33.1603 41.4 34.5085 41.4 36H44.1C44.1 33.7636 43.1919 31.7368 41.7276 30.2724L39.8184 32.1816ZM32.1816 30.2724L23.0334 21.1242L21.1242 23.0334L30.2724 32.1816L32.1816 30.2724ZM30.6 36C30.6 34.5085 31.2029 33.1603 32.1816 32.1816L30.2724 30.2724C28.8081 31.7368 27.9 33.7636 27.9 36H30.6ZM32.1816 32.1816C33.1603 31.2029 34.5085 30.6 36 30.6V27.9C33.7636 27.9 31.7368 28.8081 30.2724 30.2724L32.1816 32.1816Z" fill="white"/>
</svg>
