<svg width="72" height="72" viewBox="0 0 72 72" fill="none" xmlns="http://www.w3.org/2000/svg">
<path fill-rule="evenodd" clip-rule="evenodd" d="M34.1026 8.29473L16.1026 14.2947C13.6526 15.1114 12 17.4042 12 19.9868V36C12 43.1651 15.607 49.0752 20.3428 53.7615C25.0834 58.4524 30.7205 61.6717 34.1502 63.3686C35.3295 63.9521 36.6705 63.9521 37.8498 63.3686C41.2795 61.6717 46.9166 58.4524 51.6572 53.7615C56.393 49.0752 60 43.1651 60 36V19.9868C60 17.4042 58.3474 15.1114 55.8974 14.2947L37.8974 8.29473C36.6658 7.8842 35.3342 7.8842 34.1026 8.29473ZM15.1539 11.4487C11.4789 12.6737 9 16.113 9 19.9868V36C9 52.506 25.6806 62.5252 32.8198 66.0575C34.8375 67.0558 37.1624 67.0558 39.1802 66.0575C46.3194 62.5252 63 52.506 63 36V19.9868C63 16.113 60.5211 12.6737 56.8461 11.4487L38.846 5.44868C36.9986 4.83288 35.0013 4.83288 33.1539 5.44868L15.1539 11.4487Z" fill="white"/>
<path fill-rule="evenodd" clip-rule="evenodd" d="M46.0607 28.9393C46.6464 29.5251 46.6464 30.4749 46.0607 31.0607L35.7577 41.3636C34.2347 42.8866 31.7653 42.8867 30.2423 41.3636L25.9393 37.0607C25.3536 36.4749 25.3536 35.5251 25.9393 34.9393C26.5251 34.3536 27.4749 34.3536 28.0607 34.9393L32.3636 39.2423C32.7151 39.5938 33.2849 39.5938 33.6364 39.2423L43.9393 28.9393C44.5251 28.3536 45.4749 28.3536 46.0607 28.9393Z" fill="white"/>
</svg>
