<svg width="60" height="60" viewBox="0 0 60 60" fill="none" xmlns="http://www.w3.org/2000/svg">
<path fill-rule="evenodd" clip-rule="evenodd" d="M22.3452 50.0649C22.3533 52.273 21.0294 54.2683 18.9916 55.1189C16.9539 55.9695 14.6043 55.5078 13.04 53.9492C11.4758 52.3907 11.0054 50.0429 11.8485 48.002C12.6917 45.9611 14.682 44.6299 16.8902 44.6299C18.3343 44.6272 19.7203 45.1984 20.7433 46.2176C21.7663 47.2369 22.3425 48.6208 22.3452 50.0649Z" stroke="#0066B2" stroke-width="1.5" stroke-linecap="round" stroke-linejoin="round"/>
<path fill-rule="evenodd" clip-rule="evenodd" d="M49.1374 50.0649C49.1455 52.273 47.8216 54.2683 45.7839 55.1189C43.7461 55.9695 41.3965 55.5078 39.8323 53.9492C38.268 52.3907 37.7976 50.0429 38.6408 48.002C39.4839 45.9611 41.4743 44.6299 43.6824 44.6299C45.1265 44.6272 46.5125 45.1984 47.5355 46.2176C48.5586 47.2369 49.1348 48.6208 49.1374 50.0649Z" stroke="#0066B2" stroke-width="1.5" stroke-linecap="round" stroke-linejoin="round"/>
<path d="M7.79815 33.3581C7.65213 33.7457 7.84798 34.1783 8.2356 34.3243C8.62322 34.4704 9.05583 34.2745 9.20185 33.8869L7.79815 33.3581ZM10.4175 28.5325L9.72198 28.2519C9.71981 28.2573 9.7177 28.2627 9.71565 28.2681L10.4175 28.5325ZM25.12 21.25C25.5342 21.25 25.87 20.9142 25.87 20.5C25.87 20.0858 25.5342 19.75 25.12 19.75V21.25ZM8.5 34.3725C8.91421 34.3725 9.25 34.0367 9.25 33.6225C9.25 33.2083 8.91421 32.8725 8.5 32.8725V34.3725ZM5.2275 33.6225L5.22194 34.3725H5.2275V33.6225ZM3.30713 34.4013L3.83353 34.9356L3.30713 34.4013ZM2.5 36.31L1.75 36.3045V36.31H2.5ZM1.75 40.5C1.75 40.9142 2.08579 41.25 2.5 41.25C2.91421 41.25 3.25 40.9142 3.25 40.5H1.75ZM8.5 32.8725C8.08579 32.8725 7.75 33.2083 7.75 33.6225C7.75 34.0367 8.08579 34.3725 8.5 34.3725V32.8725ZM25.12 34.3725C25.5342 34.3725 25.87 34.0367 25.87 33.6225C25.87 33.2083 25.5342 32.8725 25.12 32.8725V34.3725ZM46.0357 33.8869C46.1817 34.2745 46.6143 34.4704 47.0019 34.3243C47.3895 34.1783 47.5854 33.7457 47.4394 33.3581L46.0357 33.8869ZM45.5219 28.2681C45.3758 27.8805 44.9432 27.6846 44.5556 27.8307C44.168 27.9767 43.9721 28.4093 44.1181 28.7969L45.5219 28.2681ZM32.385 21.25C32.7992 21.25 33.135 20.9142 33.135 20.5C33.135 20.0858 32.7992 19.75 32.385 19.75V21.25ZM25.12 19.75C24.7058 19.75 24.37 20.0858 24.37 20.5C24.37 20.9142 24.7058 21.25 25.12 21.25V19.75ZM46.7375 34.3725C47.1517 34.3725 47.4875 34.0367 47.4875 33.6225C47.4875 33.2083 47.1517 32.8725 46.7375 32.8725V34.3725ZM25.12 32.8725C24.7058 32.8725 24.37 33.2083 24.37 33.6225C24.37 34.0367 24.7058 34.3725 25.12 34.3725V32.8725ZM46.7375 32.8725C46.3233 32.8725 45.9875 33.2083 45.9875 33.6225C45.9875 34.0367 46.3233 34.3725 46.7375 34.3725V32.8725ZM54.775 33.6225V34.3725L54.7799 34.3725L54.775 33.6225ZM57.5 36.31H58.25L58.25 36.3045L57.5 36.31ZM56.75 40.5C56.75 40.9142 57.0858 41.25 57.5 41.25C57.9142 41.25 58.25 40.9142 58.25 40.5H56.75ZM38.2275 50.815C38.6417 50.815 38.9775 50.4792 38.9775 50.065C38.9775 49.6508 38.6417 49.315 38.2275 49.315V50.815ZM22.345 49.315C21.9308 49.315 21.595 49.6508 21.595 50.065C21.595 50.4792 21.9308 50.815 22.345 50.815V49.315ZM49.1375 49.315C48.7233 49.315 48.3875 49.6508 48.3875 50.065C48.3875 50.4792 48.7233 50.815 49.1375 50.815V49.315ZM54.7725 50.065L54.7781 49.315H54.7725V50.065ZM56.6929 49.2862L56.1665 48.7519V48.7519L56.6929 49.2862ZM57.5 47.3775L58.25 47.383V47.3775H57.5ZM58.25 40.5C58.25 40.0858 57.9142 39.75 57.5 39.75C57.0858 39.75 56.75 40.0858 56.75 40.5H58.25ZM11.435 50.815C11.8492 50.815 12.185 50.4792 12.185 50.065C12.185 49.6508 11.8492 49.315 11.435 49.315V50.815ZM5.2275 50.065V49.315L5.22194 49.315L5.2275 50.065ZM2.5 47.3775H1.74998L1.75002 47.383L2.5 47.3775ZM3.25 40.5C3.25 40.0858 2.91421 39.75 2.5 39.75C2.08579 39.75 1.75 40.0858 1.75 40.5H3.25ZM25.87 20.5C25.87 20.0858 25.5342 19.75 25.12 19.75C24.7058 19.75 24.37 20.0858 24.37 20.5H25.87ZM24.37 33.6225C24.37 34.0367 24.7058 34.3725 25.12 34.3725C25.5342 34.3725 25.87 34.0367 25.87 33.6225H24.37ZM2.5 39.75C2.08579 39.75 1.75 40.0858 1.75 40.5C1.75 40.9142 2.08579 41.25 2.5 41.25V39.75ZM7.4825 41.25C7.89671 41.25 8.2325 40.9142 8.2325 40.5C8.2325 40.0858 7.89671 39.75 7.4825 39.75V41.25ZM57.5 41.25C57.9142 41.25 58.25 40.9142 58.25 40.5C58.25 40.0858 57.9142 39.75 57.5 39.75V41.25ZM52.3075 39.75C51.8933 39.75 51.5575 40.0858 51.5575 40.5C51.5575 40.9142 51.8933 41.25 52.3075 41.25V39.75ZM9.20185 33.8869L11.1193 28.7969L9.71565 28.2681L7.79815 33.3581L9.20185 33.8869ZM11.113 28.8131C12.062 26.4611 13.0705 24.5749 14.4207 23.2742C15.7399 22.0033 17.4289 21.25 19.8525 21.25V19.75C17.0661 19.75 14.9964 20.6367 13.38 22.1939C11.7945 23.7213 10.6905 25.8514 9.72198 28.2519L11.113 28.8131ZM19.8525 21.25H25.12V19.75H19.8525V21.25ZM8.5 32.8725H5.2275V34.3725H8.5V32.8725ZM5.23306 32.8725C4.31607 32.8657 3.43393 33.2235 2.78073 33.8671L3.83353 34.9356C4.20334 34.5712 4.70277 34.3686 5.22194 34.3725L5.23306 32.8725ZM2.78073 33.8671C2.12753 34.5107 1.75677 35.3875 1.75002 36.3045L3.24998 36.3155C3.2538 35.7964 3.46371 35.3 3.83353 34.9356L2.78073 33.8671ZM1.75 36.31V40.5H3.25V36.31H1.75ZM8.5 34.3725H25.12V32.8725H8.5V34.3725ZM47.4394 33.3581L45.5219 28.2681L44.1181 28.7969L46.0357 33.8869L47.4394 33.3581ZM32.385 19.75H25.12V21.25H32.385V19.75ZM46.7375 32.8725H25.12V34.3725H46.7375V32.8725ZM46.7375 34.3725H54.775V32.8725H46.7375V34.3725ZM54.7799 34.3725C55.8603 34.3655 56.7421 35.2351 56.75 36.3155L58.25 36.3045C58.2359 34.3962 56.6784 32.8601 54.7701 32.8725L54.7799 34.3725ZM56.75 36.31V40.5H58.25V36.31H56.75ZM38.2275 49.315H22.345V50.815H38.2275V49.315ZM49.1375 50.815H54.7725V49.315H49.1375V50.815ZM54.7669 50.815C55.6839 50.8218 56.5661 50.464 57.2193 49.8204L56.1665 48.7519C55.7967 49.1163 55.2972 49.3189 54.7781 49.315L54.7669 50.815ZM57.2193 49.8204C57.8725 49.1768 58.2432 48.3 58.25 47.383L56.75 47.372C56.7462 47.8911 56.5363 48.3875 56.1665 48.7519L57.2193 49.8204ZM58.25 47.3775V40.5H56.75V47.3775H58.25ZM11.435 49.315H5.2275V50.815H11.435V49.315ZM5.22194 49.315C4.70277 49.3189 4.20334 49.1163 3.83353 48.7519L2.78073 49.8204C3.43393 50.464 4.31607 50.8218 5.23306 50.815L5.22194 49.315ZM3.83353 48.7519C3.46371 48.3875 3.2538 47.8911 3.24998 47.372L1.75002 47.383C1.75677 48.3 2.12753 49.1768 2.78073 49.8204L3.83353 48.7519ZM3.25 47.3775V40.5H1.75V47.3775H3.25ZM24.37 20.5V33.6225H25.87V20.5H24.37ZM2.5 41.25H7.4825V39.75H2.5V41.25ZM57.5 39.75H52.3075V41.25H57.5V39.75Z" fill="#0066B2"/>
<path fill-rule="evenodd" clip-rule="evenodd" d="M36 14.6562C35.9993 10.0506 39.2521 6.08586 43.7691 5.18671C48.2861 4.28757 52.8092 6.70444 54.5723 10.9593C56.3353 15.2141 54.8472 20.1218 51.0181 22.681C47.189 25.2402 42.0853 24.7381 38.8283 21.4817C37.0176 19.6717 36.0002 17.2164 36 14.6562Z" stroke="#0066B2" stroke-width="1.5" stroke-linecap="round" stroke-linejoin="round"/>
<path d="M52.481 21.4832L57.9976 26.9998" stroke="#0066B2" stroke-width="1.5" stroke-linecap="round" stroke-linejoin="round"/>
</svg>
