<svg width="60" height="60" viewBox="0 0 60 60" fill="none" xmlns="http://www.w3.org/2000/svg">
<circle cx="19.5" cy="19.5" r="9.5" stroke="#0066B2" stroke-width="1.5"/>
<path d="M43.5668 18.278C43.2955 17.965 42.8218 17.9312 42.5088 18.2025C42.1958 18.4737 42.162 18.9474 42.4332 19.2604L43.5668 18.278ZM45.8 22L45.2332 22.4912C45.3757 22.6556 45.5825 22.75 45.8 22.75C46.0175 22.75 46.2243 22.6556 46.3668 22.4912L45.8 22ZM51.5668 16.4912C51.838 16.1782 51.8042 15.7045 51.4912 15.4332C51.1782 15.162 50.7045 15.1958 50.4332 15.5088L51.5668 16.4912ZM42.4332 19.2604L45.2332 22.4912L46.3668 21.5088L43.5668 18.278L42.4332 19.2604ZM46.3668 22.4912L51.5668 16.4912L50.4332 15.5088L45.2332 21.5088L46.3668 22.4912Z" fill="#0066B2"/>
<path d="M38.8713 31.6849L39.3948 32.2219L39.3948 32.2219L38.8713 31.6849ZM41.9013 28.731L41.3778 28.1939L41.9013 28.731ZM38.4615 10.75H54.5385V9.25H38.4615V10.75ZM55.25 11.4248V27.0975H56.75V11.4248H55.25ZM55.25 27.0975C55.25 27.4523 54.9496 27.7723 54.5385 27.7723V29.2723C55.7417 29.2723 56.75 28.3165 56.75 27.0975H55.25ZM54.5385 10.75C54.9496 10.75 55.25 11.07 55.25 11.4248H56.75C56.75 10.2058 55.7417 9.25 54.5385 9.25V10.75ZM38.4615 9.25C37.2583 9.25 36.25 10.2058 36.25 11.4248H37.75C37.75 11.07 38.0504 10.75 38.4615 10.75V9.25ZM54.5385 27.7723H42.4181V29.2723H54.5385V27.7723ZM39.3948 32.2219L42.4249 29.268L41.3778 28.1939L38.3477 31.1478L39.3948 32.2219ZM42.4181 27.7723C42.0314 27.7723 41.6569 27.9219 41.3778 28.1939L42.4249 29.268C42.4223 29.2706 42.4201 29.2716 42.4192 29.272C42.4184 29.2723 42.418 29.2723 42.4181 29.2723V27.7723ZM36.25 30.9293C36.25 32.5841 38.2573 33.3308 39.3948 32.2219L38.3477 31.1478C38.2382 31.2546 38.0939 31.2761 37.9575 31.2211C37.8224 31.1665 37.75 31.0614 37.75 30.9293H36.25ZM37.75 30.9293V11.4248H36.25V30.9293H37.75Z" fill="#0066B2"/>
<path d="M35 50V44.6667C35 38.7756 30.3736 34 24.6667 34H14.3333C8.62639 34 4 38.7756 4 44.6667V50" stroke="#0066B2" stroke-width="1.5" stroke-linecap="round"/>
</svg>
