<svg width="60" height="60" viewBox="0 0 60 60" fill="none" xmlns="http://www.w3.org/2000/svg">
<path d="M16.6 24.6499H4.7C3.76112 24.6499 3 25.411 3 26.3499V35.2999C3 36.2388 3.76112 36.9999 4.7 36.9999H16.6C17.5389 36.9999 18.3 36.2388 18.3 35.2999V26.3499C18.3 25.411 17.5389 24.6499 16.6 24.6499Z" stroke="#0066B2" stroke-width="1.5" stroke-linecap="round" stroke-linejoin="round"/>
<path d="M6.3999 24.65V21.25C6.3999 20.1228 6.84767 19.0418 7.6447 18.2448C8.44173 17.4478 9.52273 17 10.6499 17C11.7771 17 12.8581 17.4478 13.6551 18.2448C14.4521 19.0418 14.8999 20.1228 14.8999 21.25V24.65" stroke="#0066B2" stroke-width="1.5" stroke-linecap="round" stroke-linejoin="round"/>
<path d="M10.75 29V32H12.25V29H10.75ZM10.25 32V29H8.75V32H10.25ZM10.5 32.25C10.3619 32.25 10.25 32.1381 10.25 32H8.75C8.75 32.9665 9.5335 33.75 10.5 33.75V32.25ZM10.75 32C10.75 32.1381 10.6381 32.25 10.5 32.25V33.75C11.4665 33.75 12.25 32.9665 12.25 32H10.75ZM10.5 28.75C10.6381 28.75 10.75 28.8619 10.75 29H12.25C12.25 28.0335 11.4665 27.25 10.5 27.25V28.75ZM10.5 27.25C9.5335 27.25 8.75 28.0335 8.75 29H10.25C10.25 28.8619 10.3619 28.75 10.5 28.75V27.25Z" fill="#0066B2"/>
<path d="M6.25 15C6.25 15.4142 6.58579 15.75 7 15.75C7.41421 15.75 7.75 15.4142 7.75 15H6.25ZM7.75 41C7.75 40.5858 7.41421 40.25 7 40.25C6.58579 40.25 6.25 40.5858 6.25 41H7.75ZM39.25 13C39.25 13.4142 39.5858 13.75 40 13.75C40.4142 13.75 40.75 13.4142 40.75 13H39.25ZM40.75 39C40.75 38.5858 40.4142 38.25 40 38.25C39.5858 38.25 39.25 38.5858 39.25 39H40.75ZM9 4.75H38V3.25H9V4.75ZM38 55.25H9V56.75H38V55.25ZM9 55.25C8.30964 55.25 7.75 54.6904 7.75 54H6.25C6.25 55.5188 7.48122 56.75 9 56.75V55.25ZM39.25 54C39.25 54.6904 38.6904 55.25 38 55.25V56.75C39.5188 56.75 40.75 55.5188 40.75 54H39.25ZM38 4.75C38.6904 4.75 39.25 5.30964 39.25 6H40.75C40.75 4.48122 39.5188 3.25 38 3.25V4.75ZM9 3.25C7.48122 3.25 6.25 4.48122 6.25 6H7.75C7.75 5.30964 8.30964 4.75 9 4.75V3.25ZM7.75 15V6H6.25V15H7.75ZM7.75 54V41H6.25V54H7.75ZM39.25 6V13H40.75V6H39.25ZM39.25 39V54H40.75V39H39.25Z" fill="#0066B2"/>
<path d="M29.5607 43.4393L30.091 43.9697H30.091L29.5607 43.4393ZM33.7071 39.2929L33.1768 38.7626L33.7071 39.2929ZM29 13.75H51V12.25H29V13.75ZM52.25 15V37H53.75V15H52.25ZM52.25 37C52.25 37.6904 51.6904 38.25 51 38.25V39.75C52.5188 39.75 53.75 38.5188 53.75 37H52.25ZM51 13.75C51.6904 13.75 52.25 14.3096 52.25 15H53.75C53.75 13.4812 52.5188 12.25 51 12.25V13.75ZM29 12.25C27.4812 12.25 26.25 13.4812 26.25 15H27.75C27.75 14.3096 28.3096 13.75 29 13.75V12.25ZM51 38.25H34.4142V39.75H51V38.25ZM30.091 43.9697L34.2374 39.8232L33.1768 38.7626L29.0303 42.909L30.091 43.9697ZM34.4142 38.25C33.9501 38.25 33.505 38.4344 33.1768 38.7626L34.2374 39.8232C34.2843 39.7763 34.3479 39.75 34.4142 39.75V38.25ZM26.25 42.3787C26.25 44.3832 28.6736 45.3871 30.091 43.9697L29.0303 42.909C28.5579 43.3815 27.75 43.0469 27.75 42.3787H26.25ZM27.75 42.3787V15H26.25V42.3787H27.75Z" fill="#0066B2"/>
<line x1="22.75" y1="50.25" x2="24.25" y2="50.25" stroke="#0066B2" stroke-width="1.5" stroke-linecap="round"/>
<line x1="34.75" y1="30.25" x2="45.25" y2="30.25" stroke="#0066B2" stroke-width="1.5" stroke-linecap="round"/>
<line x1="34.75" y1="23.25" x2="45.25" y2="23.25" stroke="#0066B2" stroke-width="1.5" stroke-linecap="round"/>
</svg>
