<svg width="60" height="60" viewBox="0 0 60 60" fill="none" xmlns="http://www.w3.org/2000/svg">
<path d="M31.6746 6.09129L31.0483 5.67859L31.6746 6.09129ZM24.9551 16.2877L25.5814 16.7004L24.9551 16.2877ZM39.5026 2.625H57.5391V1.125H39.5026V2.625ZM57.375 2.46094V27.5391H58.875V2.46094H57.375ZM57.5391 27.375H24.9609V28.875H57.5391V27.375ZM25.125 27.5391V18.2222H23.625V27.5391H25.125ZM25.5814 16.7004L32.3008 6.50398L31.0483 5.67859L24.3289 15.875L25.5814 16.7004ZM39.5026 1.125C36.0982 1.125 32.9217 2.83592 31.0483 5.67859L32.3008 6.50398C33.8966 4.08245 36.6026 2.625 39.5026 2.625V1.125ZM25.125 18.2222C25.125 17.6812 25.2837 17.1521 25.5814 16.7004L24.3289 15.875C23.8697 16.5717 23.625 17.3878 23.625 18.2222H25.125ZM24.9609 27.375C25.0515 27.375 25.125 27.4485 25.125 27.5391H23.625C23.625 28.2769 24.2231 28.875 24.9609 28.875V27.375ZM57.375 27.5391C57.375 27.4485 57.4485 27.375 57.5391 27.375V28.875C58.2769 28.875 58.875 28.2769 58.875 27.5391H57.375ZM57.5391 2.625C57.4485 2.625 57.375 2.55155 57.375 2.46094H58.875C58.875 1.72312 58.2769 1.125 57.5391 1.125V2.625Z" fill="#0066B2"/>
<path d="M26.1328 58.125V58.875C26.547 58.875 26.8828 58.5392 26.8828 58.125H26.1328ZM1.875 58.125H1.125C1.125 58.5392 1.46079 58.875 1.875 58.875L1.875 58.125ZM7.05752 37.2149L6.44071 36.7882L6.44071 36.7882L7.05752 37.2149ZM2.29122 44.1053L2.90803 44.532H2.90803L2.29122 44.1053ZM25.5507 43.3915C25.2102 43.1556 24.743 43.2404 24.5071 43.5809C24.2713 43.9214 24.3561 44.3887 24.6966 44.6245L25.5507 43.3915ZM14.1328 36.3003C14.1328 36.7145 14.4686 37.0503 14.8828 37.0503C15.297 37.0503 15.6328 36.7145 15.6328 36.3003H14.1328ZM9.02344 20.7422H9.77344C9.77344 20.328 9.43765 19.9922 9.02344 19.9922V20.7422ZM13.125 22.3828L12.534 21.9211C12.431 22.0529 12.375 22.2155 12.375 22.3828H13.125ZM8.32719 15.922L7.70411 15.5045V15.5045L8.32719 15.922ZM5.58653 20.0125L6.20961 20.43V20.43L5.58653 20.0125ZM16.0547 18.6328V17.8828C15.8238 17.8828 15.6058 17.9891 15.4637 18.1711L16.0547 18.6328ZM19.1226 27.1478C19.2948 27.5245 19.7398 27.6903 20.1165 27.518C20.4932 27.3458 20.659 26.9008 20.4868 26.5241L19.1226 27.1478ZM26.1328 57.375H1.875V58.875H26.1328V57.375ZM10.2743 15.6328H19.3359V14.1328H10.2743V15.6328ZM19.5234 15.8203V17.6953H21.0234V15.8203H19.5234ZM2.625 58.125V45.4387H1.125V58.125H2.625ZM6.44071 36.7882L1.6744 43.6787L2.90803 44.532L7.67433 37.6416L6.44071 36.7882ZM25.3828 45.9346V58.125H26.8828V45.9346H25.3828ZM8.01562 36.5482V29.8242H6.51562V36.5482H8.01562ZM8.01562 29.8242V26.8359H6.51562V29.8242H8.01562ZM14.1328 26.8359V29.8242H15.6328V26.8359H14.1328ZM14.1328 29.8242V36.3003H15.6328V29.8242H14.1328ZM7.26562 30.5742H14.8828V29.0742H7.26562V30.5742ZM9.77344 26.1328V20.7422H8.27344V26.1328H9.77344ZM7.96875 26.8828H9.02344V25.3828H7.96875V26.8828ZM9.02344 26.8828H13.125V25.3828H9.02344V26.8828ZM13.125 26.8828H14.1797V25.3828H13.125V26.8828ZM12.375 22.3828V26.1328H13.875V22.3828H12.375ZM7.70411 15.5045L4.96345 19.5951L6.20961 20.43L8.95026 16.3395L7.70411 15.5045ZM5.97595 21.4922H9.02344V19.9922H5.97595V21.4922ZM19.3359 17.8828H16.0547V19.3828H19.3359V17.8828ZM13.716 22.8445L16.6457 19.0945L15.4637 18.1711L12.534 21.9211L13.716 22.8445ZM15.3726 18.9446L19.1226 27.1478L20.4868 26.5241L16.7368 18.321L15.3726 18.9446ZM26.8828 45.9346C26.8828 44.9197 26.385 43.9694 25.5507 43.3915L24.6966 44.6245C25.1264 44.9222 25.3828 45.4118 25.3828 45.9346H26.8828ZM2.625 45.4387C2.625 45.1147 2.72373 44.7984 2.90803 44.532L1.67441 43.6787C1.31665 44.1959 1.125 44.8098 1.125 45.4387H2.625ZM7.67433 37.6416C7.89657 37.3203 8.01562 36.9389 8.01562 36.5482H6.51562C6.51562 36.634 6.48949 36.7177 6.44071 36.7882L7.67433 37.6416ZM4.96345 19.5951C4.42093 20.4048 5.00127 21.4922 5.97595 21.4922V19.9922C6.20088 19.9922 6.33481 20.2431 6.20961 20.43L4.96345 19.5951ZM10.2743 14.1328C9.24242 14.1328 8.27847 14.6473 7.70411 15.5045L8.95026 16.3395C9.24615 15.8978 9.74273 15.6328 10.2743 15.6328V14.1328ZM19.5234 17.6953C19.5234 17.7989 19.4395 17.8828 19.3359 17.8828V19.3828C20.2679 19.3828 21.0234 18.6273 21.0234 17.6953H19.5234ZM15.6328 26.8359C15.6328 26.0334 14.9822 25.3828 14.1797 25.3828V26.8828C14.1538 26.8828 14.1328 26.8618 14.1328 26.8359H15.6328ZM19.3359 15.6328C19.4395 15.6328 19.5234 15.7168 19.5234 15.8203H21.0234C21.0234 14.8883 20.2679 14.1328 19.3359 14.1328V15.6328ZM8.01562 26.8359C8.01562 26.8618 7.99464 26.8828 7.96875 26.8828V25.3828C7.16621 25.3828 6.51562 26.0334 6.51562 26.8359H8.01562Z" fill="#0066B2"/>
<path d="M35.903 8.1905L36.5426 8.58212L35.903 8.1905ZM30.8044 16.5182L30.1647 16.1266L30.8044 16.5182ZM40.9002 6.14062H53.7891V4.64062H40.9002V6.14062ZM53.625 5.97656V16.2891H55.125V5.97656H53.625ZM53.7891 16.125H31.0043V17.625H53.7891V16.125ZM31.444 16.9099L36.5426 8.58212L35.2634 7.79889L30.1647 16.1266L31.444 16.9099ZM40.9002 4.64062C38.5996 4.64062 36.4646 5.83687 35.2634 7.79889L36.5426 8.58212C37.4713 7.06538 39.1217 6.14062 40.9002 6.14062V4.64062ZM31.0043 16.125C31.4071 16.125 31.6544 16.5663 31.444 16.9099L30.1647 16.1266C29.7632 16.7826 30.2352 17.625 31.0043 17.625V16.125ZM53.625 16.2891C53.625 16.1985 53.6985 16.125 53.7891 16.125V17.625C54.5269 17.625 55.125 17.0269 55.125 16.2891H53.625ZM53.7891 6.14062C53.6985 6.14062 53.625 6.06717 53.625 5.97656H55.125C55.125 5.23874 54.5269 4.64062 53.7891 4.64062V6.14062Z" fill="#0066B2"/>
<path d="M15.9375 40.0781C18.3969 40.0781 20.3906 38.0844 20.3906 35.625C20.3906 38.0844 22.3844 40.0781 24.8438 40.0781C22.3844 40.0781 20.3906 42.0719 20.3906 44.5312C20.3906 42.0719 18.3969 40.0781 15.9375 40.0781Z" stroke="#0066B2" stroke-width="1.5" stroke-linejoin="round"/>
<path d="M5.74219 49.6875C8.20158 49.6875 10.1953 47.6938 10.1953 45.2344C10.1953 47.6938 12.189 49.6875 14.6484 49.6875C12.189 49.6875 10.1953 51.6812 10.1953 54.1406C10.1953 51.6812 8.20158 49.6875 5.74219 49.6875Z" stroke="#0066B2" stroke-width="1.5" stroke-linejoin="round"/>
<line x1="53.625" y1="21.1406" x2="50.6719" y2="21.1406" stroke="#0066B2" stroke-width="1.5" stroke-linecap="round" stroke-linejoin="round"/>
</svg>
