<svg width="60" height="60" viewBox="0 0 60 60" fill="none" xmlns="http://www.w3.org/2000/svg">
<path d="M26.5068 3.69873L27.0371 3.1684C26.8965 3.02775 26.7057 2.94873 26.5068 2.94873V3.69873ZM41.3013 18.4933H42.0513C42.0513 18.2943 41.9723 18.1036 41.8316 17.9629L41.3013 18.4933ZM6.91431 50.1371V4.93161H5.41431V50.1371H6.91431ZM7.39718 4.44873H26.5068V2.94873H7.39718V4.44873ZM25.7568 3.69873V17.2604H27.2568V3.69873H25.7568ZM27.7396 19.2433H41.3013V17.7433H27.7396V19.2433ZM25.9764 4.22906L40.771 19.0236L41.8316 17.9629L27.0371 3.1684L25.9764 4.22906ZM25.7568 17.2604C25.7568 18.3555 26.6445 19.2433 27.7396 19.2433V17.7433C27.473 17.7433 27.2568 17.5271 27.2568 17.2604H25.7568ZM7.39718 50.62C7.1305 50.62 6.91431 50.4038 6.91431 50.1371H5.41431C5.41431 51.2322 6.30207 52.12 7.39718 52.12V50.62ZM6.91431 4.93161C6.91431 4.66492 7.1305 4.44873 7.39718 4.44873V2.94873C6.30207 2.94873 5.41431 3.8365 5.41431 4.93161H6.91431ZM27.7396 50.62H7.39718V52.12H27.7396V50.62ZM40.5513 18.4933V29.2809H42.0513V18.4933H40.5513Z" fill="#0066B2"/>
<circle cx="42.6369" cy="45.1029" r="11.1986" stroke="#0066B2" stroke-width="1.5"/>
<line x1="13.6951" y1="25.5515" x2="33.7704" y2="25.5515" stroke="#0066B2" stroke-width="1.5" stroke-linecap="round" stroke-linejoin="round"/>
<line x1="13.6951" y1="32.1267" x2="23.0855" y2="32.1267" stroke="#0066B2" stroke-width="1.5" stroke-linecap="round" stroke-linejoin="round"/>
<line x1="13.6951" y1="40.7568" x2="19.7978" y2="40.7568" stroke="#0066B2" stroke-width="1.5" stroke-linecap="round" stroke-linejoin="round"/>
<path d="M39.3658 44.7506C39.0729 44.4577 38.598 44.4577 38.3051 44.7506C38.0122 45.0435 38.0122 45.5184 38.3051 45.8113L39.3658 44.7506ZM41.7122 48.1577L41.1818 48.688C41.4747 48.9809 41.9496 48.9809 42.2425 48.688L41.7122 48.1577ZM47.585 43.3455C47.8779 43.0526 47.8779 42.5777 47.585 42.2849C47.2921 41.992 46.8172 41.992 46.5243 42.2849L47.585 43.3455ZM38.3051 45.8113L41.1818 48.688L42.2425 47.6273L39.3658 44.7506L38.3051 45.8113ZM42.2425 48.688L47.585 43.3455L46.5243 42.2849L41.1818 47.6273L42.2425 48.688Z" fill="#0066B2"/>
</svg>
