<svg width="60" height="60" viewBox="0 0 60 60" fill="none" xmlns="http://www.w3.org/2000/svg">
<path d="M10.467 27.2938C10.1046 28.8034 9.91266 30.3793 9.91266 32C9.91266 33.6207 10.1046 35.1966 10.467 36.7062M10.467 27.2938C12.8457 26.6051 20.0826 25.2277 30 25.2277C39.9174 25.2277 47.1543 26.6051 49.533 27.2938M10.467 27.2938C10.9187 25.4123 11.6352 23.6338 12.5748 22M10.467 36.7062L19.2272 38.4555C21.5085 38.9111 23.1836 40.866 23.284 43.1902L23.6239 51.0543M10.467 36.7062C12.0868 43.4538 17.1123 48.8763 23.6239 51.0543M23.6239 51.0543C25.6272 51.7244 27.7712 52.0873 30 52.0873C31.5077 52.0873 32.9765 51.9212 34.3893 51.6063C35.6022 51.336 36.4115 50.2346 36.4652 48.9932L36.716 43.1902C36.8164 40.866 38.4915 38.9111 40.7728 38.4555L49.533 36.7062M49.533 27.2938C49.8954 28.8034 50.0873 30.3793 50.0873 32C50.0873 33.6207 49.8954 35.1966 49.533 36.7062M49.533 27.2938C47.4148 18.4703 39.4732 11.9127 30 11.9127C26.0361 11.9127 22.3404 13.0608 19.2272 15.0427M49.533 36.7062C48.4714 41.1285 45.9469 44.9816 42.5 47.7252M34.5 55.5788C33.0424 55.8553 31.5381 56 30 56C16.7452 56 6 45.2548 6 32C6 18.7452 16.7452 8 30 8C31.5381 8 33.0424 8.14468 34.5 8.42119M45.2899 50.5C50.6102 46.0979 54 39.4448 54 32C54 25.8532 51.6892 20.2461 47.8889 16" stroke="#0066B2" stroke-width="1.5" stroke-linecap="round" stroke-linejoin="round"/>
<path d="M36 53.4531C38.4594 53.4531 40.4531 51.4594 40.4531 49C40.4531 51.4594 42.4469 53.4531 44.9062 53.4531C42.4469 53.4531 40.4531 55.4469 40.4531 57.9062C40.4531 55.4469 38.4594 53.4531 36 53.4531Z" stroke="#0066B2" stroke-width="1.5" stroke-linejoin="round"/>
<path d="M13 19C14.6569 19 16 17.6569 16 16C16 17.6569 17.3431 19 19 19C17.3431 19 16 20.3431 16 22C16 20.3431 14.6569 19 13 19Z" stroke="#0066B2" stroke-width="1.5" stroke-linejoin="round"/>
<path d="M38 8.5C41.5899 8.5 44.5 5.58985 44.5 2C44.5 5.58985 47.4101 8.5 51 8.5C47.4101 8.5 44.5 11.4101 44.5 15C44.5 11.4101 41.5899 8.5 38 8.5Z" stroke="#0066B2" stroke-width="1.5" stroke-linejoin="round"/>
<ellipse cx="30" cy="33" rx="7" ry="3" stroke="#0066B2" stroke-width="1.5"/>
</svg>
