<svg width="23" height="23" viewBox="0 0 23 23" fill="none" xmlns="http://www.w3.org/2000/svg">
<path d="M11.4997 12.1764C11.8733 12.1764 12.1762 11.8736 12.1762 11.5C12.1762 11.1264 11.8733 10.8235 11.4997 10.8235C11.1261 10.8235 10.8232 11.1264 10.8232 11.5C10.8232 11.8736 11.1261 12.1764 11.4997 12.1764Z" fill="black"/>
<path d="M11.5 0C5.14429 0 0 5.14343 0 11.5C0 17.8557 5.14343 23 11.5 23C17.8558 23 23 17.8566 23 11.5C23 5.14429 17.8566 0 11.5 0ZM11.5 2.70588C15.037 2.70588 18.0925 4.80506 19.4873 7.82275C19.187 7.76516 15.7592 6.76471 11.5 6.76471C7.24577 6.76471 3.80199 7.76724 3.51269 7.82275C4.90752 4.80506 7.96301 2.70588 11.5 2.70588ZM11.5 13.5294C10.381 13.5294 9.47059 12.6191 9.47059 11.5C9.47059 10.381 10.381 9.47059 11.5 9.47059C12.6191 9.47059 13.5294 10.381 13.5294 11.5C13.5294 12.6191 12.6191 13.5294 11.5 13.5294ZM2.86981 13.1917C3.1777 13.2554 3.71076 13.3747 4.49438 13.5183C7.37781 14.0469 9.47059 16.5642 9.47059 19.5048V20.0573C6.13663 19.2668 3.53145 16.5731 2.86981 13.1917ZM13.5294 20.0574V19.5041C13.5294 16.5642 15.6222 14.0469 18.5056 13.5183C19.304 13.372 19.8422 13.2512 20.1302 13.1917C19.4686 16.5731 16.8634 19.2668 13.5294 20.0574Z" fill="black"/>
</svg>
