<svg width="23" height="23" viewBox="0 0 23 23" fill="none" xmlns="http://www.w3.org/2000/svg">
<path d="M21.4277 0H13.791C12.9241 0 12.2188 0.705318 12.2188 1.57227V9.20898C12.2188 10.0759 12.9241 10.7812 13.791 10.7812H21.4277C22.2947 10.7812 23 10.0759 23 9.20898V1.57227C23 0.705318 22.2947 0 21.4277 0ZM19.8555 6.06445H15.3633C14.9911 6.06445 14.6895 5.76276 14.6895 5.39062C14.6895 5.01849 14.9911 4.7168 15.3633 4.7168H19.8555C20.2276 4.7168 20.5293 5.01849 20.5293 5.39062C20.5293 5.76276 20.2276 6.06445 19.8555 6.06445Z" fill="black"/>
<path d="M21.4277 12.2188H13.791C12.9241 12.2188 12.2188 12.9241 12.2188 13.791V21.4277C12.2188 22.2947 12.9241 23 13.791 23H21.4277C22.2947 23 23 22.2947 23 21.4277V13.791C23 12.9241 22.2947 12.2188 21.4277 12.2188ZM19.8555 19.4062H15.3633C14.9911 19.4062 14.6895 19.1046 14.6895 18.7324C14.6895 18.3603 14.9911 18.0586 15.3633 18.0586H19.8555C20.2276 18.0586 20.5293 18.3603 20.5293 18.7324C20.5293 19.1046 20.2276 19.4062 19.8555 19.4062ZM19.8555 16.7109H15.3633C14.9911 16.7109 14.6895 16.4092 14.6895 16.0371C14.6895 15.665 14.9911 15.3633 15.3633 15.3633H19.8555C20.2276 15.3633 20.5293 15.665 20.5293 16.0371C20.5293 16.4092 20.2276 16.7109 19.8555 16.7109Z" fill="black"/>
<path d="M9.20898 0H1.57227C0.705318 0 0 0.705318 0 1.57227V9.20898C0 10.0759 0.705318 10.7812 1.57227 10.7812H9.20898C10.0759 10.7812 10.7812 10.0759 10.7812 9.20898V1.57227C10.7812 0.705318 10.0759 0 9.20898 0ZM7.63672 6.03772H6.09114V7.63672C6.09114 8.00885 5.78944 8.31055 5.41731 8.31055C5.04518 8.31055 4.74348 8.00885 4.74348 7.63672V6.03772H3.14453C2.7724 6.03772 2.4707 5.73603 2.4707 5.3639C2.4707 4.99176 2.7724 4.69007 3.14453 4.69007H4.74348V3.14453C4.74348 2.7724 5.04518 2.4707 5.41731 2.4707C5.78944 2.4707 6.09114 2.7724 6.09114 3.14453V4.69007H7.63672C8.00885 4.69007 8.31055 4.99176 8.31055 5.3639C8.31055 5.73603 8.00885 6.03772 7.63672 6.03772Z" fill="black"/>
<path d="M9.20898 12.2188H1.57227C0.705318 12.2188 0 12.9241 0 13.791V21.4277C0 22.2947 0.705318 23 1.57227 23H9.20898C10.0759 23 10.7812 22.2947 10.7812 21.4277V13.791C10.7812 12.9241 10.0759 12.2188 9.20898 12.2188ZM8.11316 19.3523C8.37631 19.6154 8.37631 20.0421 8.11316 20.3052C7.98158 20.4368 7.80913 20.5026 7.63672 20.5026C7.46431 20.5026 7.29181 20.4368 7.16028 20.3052L5.41735 18.5623L3.62102 20.3586C3.48944 20.4902 3.31699 20.556 3.14458 20.556C2.97217 20.556 2.79967 20.4902 2.66813 20.3586C2.40498 20.0955 2.40498 19.6689 2.66813 19.4057L4.46443 17.6094L2.66809 15.813C2.40494 15.5499 2.40494 15.1233 2.66809 14.8601C2.9312 14.597 3.35787 14.597 3.62102 14.8601L5.41735 16.6564L7.16028 14.9135C7.42338 14.6504 7.85005 14.6504 8.1132 14.9135C8.37636 15.1766 8.37636 15.6033 8.1132 15.8665L6.37028 17.6094L8.11316 19.3523Z" fill="black"/>
</svg>
