<svg width="16" height="16" viewBox="0 0 16 16" xmlns="http://www.w3.org/2000/svg">
<path d="M6.76436 9.17322C7.69213 10.1144 8.81471 10.841 10.0533 11.3021L11.7288 9.96877C11.7785 9.93456 11.8374 9.91625 11.8977 9.91625C11.958 9.91625 12.0169 9.93456 12.0666 9.96877L15.1777 11.9732C15.2958 12.0442 15.3958 12.1417 15.4697 12.258C15.5437 12.3743 15.5896 12.5062 15.6038 12.6433C15.618 12.7803 15.6002 12.9189 15.5517 13.0479C15.5032 13.1768 15.4254 13.2928 15.3244 13.3866L13.8666 14.8266C13.6578 15.0328 13.4012 15.1842 13.1197 15.2672C12.8382 15.3502 12.5405 15.3622 12.2532 15.3021C9.38757 14.7102 6.7462 13.3241 4.63103 11.3021C2.5628 9.25999 1.13159 6.66159 0.511027 3.82211C0.449723 3.53928 0.462518 3.24541 0.548172 2.96898C0.633826 2.69256 0.789434 2.44294 0.999916 2.24433L2.51103 0.786551C2.60454 0.690456 2.71858 0.616762 2.8446 0.570985C2.97063 0.525209 3.10538 0.508537 3.23877 0.522217C3.37215 0.535897 3.50071 0.579576 3.61482 0.649982C3.72893 0.720388 3.82564 0.815697 3.89769 0.928773L5.96881 3.99988C6.00453 4.04811 6.02381 4.10654 6.02381 4.16655C6.02381 4.22657 6.00453 4.28499 5.96881 4.33322L4.60436 5.97322C5.07795 7.18697 5.8158 8.28007 6.76436 9.17322Z"/>
</svg>
