<svg width="23" height="23" viewBox="0 0 23 23" fill="none" xmlns="http://www.w3.org/2000/svg">
<g clip-path="url(#clip0_13_1088)">
<path d="M22.2999 6.13952L17.2822 1.12182C16.6413 0.47512 15.6886 0.255704 14.8282 0.550183L11.716 1.60685C10.9249 1.87823 10.3013 2.50183 10.0357 3.29288L7.55286 10.6664C7.48357 10.8743 7.53554 11.1053 7.69144 11.2612L8.17646 11.7462L0.208206 19.7029C0.104272 19.8068 0.0407572 19.9512 0.0407572 20.0955L0.000338545 21.9663C-0.00543556 22.2897 0.254399 22.5553 0.577748 22.5611L4.35401 22.5784C4.63694 22.5784 4.87945 22.3705 4.92565 22.0876L5.23167 20.2572L6.99277 20.0089C7.28148 19.9685 7.49512 19.7202 7.48935 19.4257L7.46047 17.8321L8.17069 17.1219L9.19271 16.7812C9.27932 16.7523 9.35438 16.7061 9.4179 16.6426L11.2541 14.8065L11.9585 15.5109C12.1086 15.661 12.328 15.7188 12.5359 15.6552L20.0711 13.3629C20.8968 13.1089 21.5551 12.4737 21.8322 11.6538L22.8715 8.59351C23.166 7.73317 22.9466 6.78045 22.2999 6.13952ZM8.69036 15.7361L7.66834 16.0768C7.58173 16.1056 7.50667 16.1518 7.44315 16.2153L6.46156 17.1969C6.35185 17.3066 6.28833 17.4568 6.29411 17.6184L6.3172 18.9465L4.64271 19.1832C4.39443 19.2179 4.19811 19.4142 4.15192 19.6625L3.85744 21.4236L1.16093 21.4178L1.18403 20.3669L8.99061 12.5603L10.4284 13.9981L8.69036 15.7361ZM21.7745 8.2182L20.7351 11.2958C20.5735 11.7635 20.2039 12.1273 19.7304 12.2716L12.5244 14.46L8.75965 10.6895L11.1328 3.65665C11.2887 3.20627 11.6409 2.84828 12.0913 2.69238L15.2035 1.63572C15.6481 1.48559 16.1389 1.5953 16.4681 1.9302L21.4858 6.94789C21.8149 7.28279 21.9304 7.77937 21.7745 8.2182Z" fill="black"/>
<path d="M18.57 7.19629L16.2257 4.852C15.5271 4.15334 14.4011 4.15334 13.7025 4.852C13.0038 5.55067 13.0038 6.67662 13.7025 7.37529L16.0467 9.71957C16.7454 10.4182 17.8714 10.4182 18.57 9.71957C19.2687 9.02091 19.2687 7.89496 18.57 7.19629ZM17.7501 8.89965C17.5076 9.14216 17.1092 9.14794 16.8609 8.89965L14.5166 6.55536C14.2683 6.31285 14.2683 5.91444 14.5166 5.66615C14.7591 5.41787 15.1575 5.41787 15.4058 5.66615L17.7501 8.01044C17.9984 8.25295 17.9984 8.65137 17.7501 8.89965Z" fill="black"/>
</g>
<defs>
<clipPath id="clip0_13_1088">
<rect width="23" height="23" fill="white"/>
</clipPath>
</defs>
</svg>
