<svg width="18" height="18" viewBox="0 0 18 18" xmlns="http://www.w3.org/2000/svg">
    <path d="M10 0.5C11.0506 0.5 12.0909 0.693993 13.0615 1.0709C14.0321 1.44781 14.914 2.00026 15.6569 2.6967C16.3997 3.39314 16.989 4.21993 17.391 5.12987C17.7931 6.03982 18 7.01509 18 8C18 8.98491 17.7931 9.96018 17.391 10.8701C16.989 11.7801 16.3997 12.6069 15.6569 13.3033C14.914 13.9997 14.0321 14.5522 13.0615 14.9291C12.0909 15.306 11.0506 15.5 10 15.5C7.87827 15.5 5.84344 14.7098 4.34315 13.3033C2.84285 11.8968 2 9.98912 2 8C2 6.01088 2.84285 4.10322 4.34315 2.6967C5.84344 1.29018 7.87827 0.5 10 0.5ZM10 1.75C8.23189 1.75 6.5362 2.40848 5.28595 3.58058C4.03571 4.75269 3.33333 6.3424 3.33333 8C3.33333 9.6576 4.03571 11.2473 5.28595 12.4194C6.5362 13.5915 8.23189 14.25 10 14.25C11.7681 14.25 13.4638 13.5915 14.714 12.4194C15.9643 11.2473 16.6667 9.6576 16.6667 8C16.6667 6.3424 15.9643 4.75269 14.714 3.58058C13.4638 2.40848 11.7681 1.75 10 1.75ZM9.336 4.25C9.49181 4.25024 9.6426 4.30164 9.76219 4.39526C9.88178 4.48888 9.96262 4.61882 9.99067 4.7625L10.0027 4.875V8H12C12.1666 7.99971 12.3273 8.05791 12.4504 8.16314C12.5735 8.26836 12.6501 8.41298 12.6652 8.56853C12.6802 8.72407 12.6326 8.87926 12.5317 9.00354C12.4308 9.12782 12.2839 9.21217 12.12 9.24L12 9.25H9.336C9.17997 9.25005 9.02886 9.19879 8.90899 9.10514C8.78912 9.01149 8.70809 8.88139 8.68 8.7375L8.66933 8.625V4.875C8.66933 4.70924 8.73957 4.55027 8.8646 4.43306C8.98962 4.31585 9.15919 4.25 9.336 4.25Z"/>
</svg>
