<svg width="15" height="15" viewBox="0 0 15 15" xmlns="http://www.w3.org/2000/svg">
<g clip-path="url(#clip0_13_3118)">
<path fill-rule="evenodd" clip-rule="evenodd" d="M15 3.15104C15 2.78163 14.8533 2.42735 14.592 2.16614C14.3308 1.90493 13.9766 1.75818 13.6071 1.75818H1.39286C1.02345 1.75818 0.66917 1.90493 0.407958 2.16614C0.146747 2.42735 0 2.78163 0 3.15104L0 11.8489C0 12.2183 0.146747 12.5726 0.407958 12.8338C0.66917 13.095 1.02345 13.2417 1.39286 13.2417H13.6071C13.9766 13.2417 14.3308 13.095 14.592 12.8338C14.8533 12.5726 15 12.2183 15 11.8489V3.15104ZM7.11 8.66139L2.89286 4.64675C2.82248 4.57737 2.77508 4.48808 2.75702 4.39092C2.73897 4.29377 2.75114 4.19341 2.79189 4.10338C2.83264 4.01335 2.90002 3.93798 2.98493 3.88743C3.06985 3.83688 3.16822 3.81359 3.26679 3.82068H11.7364C11.8353 3.8132 11.934 3.83636 12.0192 3.88702C12.1044 3.93768 12.1719 4.01337 12.2126 4.10378C12.2532 4.19419 12.265 4.29494 12.2463 4.39229C12.2277 4.48964 12.1794 4.57887 12.1082 4.64782L7.85571 8.66246C7.75393 8.75583 7.62077 8.80755 7.48265 8.80735C7.34452 8.80715 7.21152 8.75505 7.11 8.66139Z" />
</g>
<defs>
<clipPath id="clip0_13_3118">
<rect width="15" height="15" />
</clipPath>
</defs>
</svg>
