<svg width="32" height="32" viewBox="0 0 32 32" fill="none" xmlns="http://www.w3.org/2000/svg">
<path d="M9.46969 16.5303C9.76258 16.8232 10.2375 16.8232 10.5303 16.5303C10.8232 16.2374 10.8232 15.7625 10.5303 15.4696L9.46969 16.5303ZM4.53033 9.4696C4.23744 9.17671 3.76256 9.17671 3.46967 9.4696C3.17678 9.7625 3.17678 10.2374 3.46967 10.5303L4.53033 9.4696ZM4 9.25003C3.58579 9.25003 3.25 9.58582 3.25 10C3.25 10.4142 3.58579 10.75 4 10.75V9.25003ZM28.0001 10.75C28.4143 10.75 28.7501 10.4142 28.7501 10C28.7501 9.58582 28.4143 9.25003 28.0001 9.25003V10.75ZM3.46967 9.46973C3.17678 9.76263 3.17678 10.2375 3.46967 10.5304C3.76256 10.8233 4.23744 10.8233 4.53033 10.5304L3.46967 9.46973ZM10.5303 4.53038C10.8232 4.23748 10.8232 3.76261 10.5303 3.46972C10.2375 3.17682 9.76258 3.17682 9.46969 3.46972L10.5303 4.53038ZM22.5303 15.4697C22.2374 15.1768 21.7626 15.1768 21.4697 15.4697C21.1768 15.7626 21.1768 16.2374 21.4697 16.5303L22.5303 15.4697ZM27.4697 22.5303C27.7626 22.8232 28.2375 22.8232 28.5303 22.5303C28.8232 22.2374 28.8232 21.7626 28.5303 21.4697L27.4697 22.5303ZM28.0001 22.75C28.4143 22.75 28.7501 22.4142 28.7501 22C28.7501 21.5858 28.4143 21.25 28.0001 21.25V22.75ZM4 21.25C3.58579 21.25 3.25 21.5858 3.25 22C3.25 22.4142 3.58579 22.75 4 22.75V21.25ZM28.5303 22.5304C28.8232 22.2375 28.8232 21.7626 28.5303 21.4697C28.2375 21.1768 27.7626 21.1768 27.4697 21.4697L28.5303 22.5304ZM21.4697 27.4697C21.1768 27.7626 21.1768 28.2375 21.4697 28.5304C21.7626 28.8233 22.2374 28.8233 22.5303 28.5304L21.4697 27.4697ZM10.5303 15.4696L4.53033 9.4696L3.46967 10.5303L9.46969 16.5303L10.5303 15.4696ZM4 10.75H28.0001V9.25003H4V10.75ZM4.53033 10.5304L10.5303 4.53038L9.46969 3.46972L3.46967 9.46973L4.53033 10.5304ZM21.4697 16.5303L27.4697 22.5303L28.5303 21.4697L22.5303 15.4697L21.4697 16.5303ZM28.0001 21.25H4V22.75H28.0001V21.25ZM27.4697 21.4697L21.4697 27.4697L22.5303 28.5304L28.5303 22.5304L27.4697 21.4697Z" fill="black"/>
</svg>
