<svg width="32" height="32" viewBox="0 0 32 32" fill="none" xmlns="http://www.w3.org/2000/svg">
<path fill-rule="evenodd" clip-rule="evenodd" d="M28.8 23.1113C28.8 26.2531 26.253 28.8 23.1113 28.8H8.88864C5.74686 28.8 3.19995 26.2531 3.19995 23.1113V8.88868C3.19995 5.74691 5.74686 3.2 8.88864 3.2H23.1113C26.253 3.2 28.8 5.74691 28.8 8.88868V23.1113Z" stroke="black" stroke-width="1.5" stroke-linecap="round" stroke-linejoin="round"/>
<path fill-rule="evenodd" clip-rule="evenodd" d="M15.5465 13.0616C16.2573 11.9402 16.1204 10.4803 15.2137 9.51049C14.3286 8.56394 12.8811 8.4149 11.8217 9.16123C11.3756 9.47589 11.0316 9.9146 10.8325 10.4229C10.6287 10.9394 10.5755 11.503 10.6789 12.0485C10.7789 12.5892 11.0329 13.0896 11.4103 13.4895C11.78 13.8795 12.2596 14.148 12.7854 14.2593C13.307 14.3676 13.8495 14.3114 14.3378 14.0984C14.8352 13.8812 15.2562 13.5201 15.5465 13.0616V13.0616Z" stroke="black" stroke-width="1.5" stroke-linecap="round" stroke-linejoin="round"/>
<path fill-rule="evenodd" clip-rule="evenodd" d="M16.4534 22.0635C15.7426 20.9422 15.8795 19.4822 16.7862 18.5125C17.6713 17.5659 19.1188 17.4169 20.1782 18.1632C20.6243 18.4779 20.9683 18.9166 21.1675 19.4249C21.3712 19.9414 21.4245 20.505 21.321 21.0505C21.221 21.5912 20.967 22.0915 20.5896 22.4914C20.2199 22.8815 19.7403 23.1499 19.2145 23.2613C18.6929 23.3695 18.1504 23.3133 17.6621 23.1003C17.1647 22.8832 16.7437 22.5221 16.4534 22.0635Z" stroke="black" stroke-width="1.5" stroke-linecap="round" stroke-linejoin="round"/>
<path d="M15.9998 10.7481C15.5856 10.7481 15.2498 11.0839 15.2498 11.4981C15.2498 11.9123 15.5856 12.2481 15.9998 12.2481V10.7481ZM23.3141 12.2481C23.7283 12.2481 24.0641 11.9123 24.0641 11.4981C24.0641 11.0839 23.7283 10.7481 23.3141 10.7481V12.2481ZM10.6257 12.2481C11.0399 12.2481 11.3757 11.9123 11.3757 11.4981C11.3757 11.0839 11.0399 10.7481 10.6257 10.7481V12.2481ZM8.68555 10.7481C8.27133 10.7481 7.93555 11.0839 7.93555 11.4981C7.93555 11.9123 8.27133 12.2481 8.68555 12.2481V10.7481ZM15.9998 21.252C16.414 21.252 16.7498 20.9162 16.7498 20.502C16.7498 20.0878 16.414 19.752 15.9998 19.752V21.252ZM8.68555 19.752C8.27133 19.752 7.93555 20.0878 7.93555 20.502C7.93555 20.9162 8.27133 21.252 8.68555 21.252V19.752ZM21.3739 19.752C20.9597 19.752 20.6239 20.0878 20.6239 20.502C20.6239 20.9162 20.9597 21.252 21.3739 21.252V19.752ZM23.3141 21.252C23.7283 21.252 24.0641 20.9162 24.0641 20.502C24.0641 20.0878 23.7283 19.752 23.3141 19.752V21.252ZM15.9998 12.2481H23.3141V10.7481H15.9998V12.2481ZM10.6257 10.7481H8.68555V12.2481H10.6257V10.7481ZM15.9998 19.752H8.68555V21.252H15.9998V19.752ZM21.3739 21.252H23.3141V19.752H21.3739V21.252Z" fill="black"/>
</svg>
