<svg width="23" height="23" viewBox="0 0 23 23" fill="none" xmlns="http://www.w3.org/2000/svg">
<path d="M15.5362 12.9153C14.9726 12.5818 13.9878 11.766 13.0703 12.6391C12.8537 12.8595 12.7104 13.0071 12.6177 13.1019C11.7842 12.7071 10.3021 11.276 9.91783 10.373C11.2795 9.13524 10.6492 8.69374 9.30998 6.15022C9.08116 5.75539 8.7102 5.49341 8.25747 5.49341C7.70297 5.49341 7.48625 5.76662 6.69415 6.5682C5.70236 7.57157 5.12031 7.88673 5.49337 9.58691C6.555 14.4265 13.6398 19.2735 15.6462 17.1068C17.285 15.479 17.601 15.3248 17.5051 14.5887C17.3842 13.8557 16.8218 13.676 15.5362 12.9153ZM14.6587 16.1897C14.5441 16.3169 13.858 16.3589 12.7198 15.8865C10.5616 14.9909 8.32292 12.6405 7.40553 10.886C7.11337 10.3271 6.46726 8.66988 6.82594 8.34665C6.97263 8.2075 7.95899 7.20026 8.21132 6.95618C8.88304 8.22943 9.21013 8.82465 9.31875 9.06715C9.12555 9.36546 8.5077 9.59902 8.5077 10.3308C8.77951 11.7604 10.6394 13.5123 11.751 14.1642C12.8857 14.8296 13.2487 14.3848 13.662 13.9612C14.031 13.5832 13.9994 13.6062 14.0378 13.6023L16.0676 14.7952C15.8296 15.044 14.8229 16.0171 14.6587 16.1897Z" fill="black"/>
<path d="M11.5 0C5.14338 0 0 5.14426 0 11.5C0 17.8566 5.14426 23 11.5 23C17.8566 23 23 17.8557 23 11.5C23 5.14338 17.8557 0 11.5 0ZM11.5 21.6523C5.88828 21.6523 1.34766 17.1108 1.34766 11.5C1.34766 5.88828 5.88915 1.34766 11.5 1.34766C17.1117 1.34766 21.6523 5.88915 21.6523 11.5C21.6523 17.1117 17.1108 21.6523 11.5 21.6523Z" fill="black"/>
</svg>
